# xmcd
#
# Track frame offsets:
#  150
#  20836
#  43961
#  64664
#  88299
#  106759
#  129318
#  147088
#  166700
#  179037
#  203123
#  217530
#  239270
#  261011
#
# Disc length: 3754 seconds
#
# Revision: 0
# Processed by: cddbd v1.5.1PL2 Copyright (c) Steve Scherf et al.
# Submitted via: Collectorz.com_Music_Collector 6.11
#
DISCID=c20ea80e
DTITLE=Papa John Kolstad and Clint Hoover - Alive And Well At The Ginko
DYEAR=2006
DGENRE=Acoustic Blues - Blues
TTITLE0=It's Too Short
TTITLE1=Fishin' Blues
TTITLE2=Born In The Desert
TTITLE3=Wee Midnight Hour
TTITLE4=Beans Taste Fine
TTITLE5=Barrelhouse Woman
TTITLE6=Stop That Dancin' Up There
TTITLE7=Mill City Blues
TTITLE8=Freeze To Me Mama
TTITLE9=Crawling Roosre Blues
TTITLE10=Keep Your Hands Off Her
TTITLE11=Alabama Woman
TTITLE12=Leavin' The Blues Behind Me
TTITLE13=Wolverine 14 (Talking Wolverine)
EXTD=
EXTT0=
EXTT1=
EXTT2=
EXTT3=
EXTT4=
EXTT5=
EXTT6=
EXTT7=
EXTT8=
EXTT9=
EXTT10=
EXTT11=
EXTT12=
EXTT13=
PLAYORDER=
